<?xml version="1.0" encoding="utf-8"?>
<!-- Generator: Adobe Illustrator 24.0.2, SVG Export Plug-In . SVG Version: 6.00 Build 0)  -->
<svg version="1.1" id="Layer_1" xmlns="http://www.w3.org/2000/svg" xmlns:xlink="http://www.w3.org/1999/xlink" x="0px" y="0px"
	 viewBox="0 0 397 106" style="enable-background:new 0 0 397 106;" xml:space="preserve">
<style type="text/css">
	.st0{fill:#40476F;}
</style>
<g>
	<path class="st0" d="M142.4,3.9c0.2-0.8,0-1.7-0.7-2.2c-0.7-0.5-1.6-0.6-2.3-0.2c-6.1,3.3-10.9,4.8-22.3,3.9
		c-10.4-0.7-17,0.3-24.4,3.9c-6.6,3.2-12.6,9.8-18,19.7c-3.5-6-8.7-12.9-14.6-16.5C52.6,7.8,44.8,5.2,29.2,7
		c-7.1,0.8-15.9,1.8-25-5.5C3.5,0.9,2.7,0.9,1.9,1.2c-0.7,0.4-1.2,1.2-1.1,2c0.4,5.4,3,9.1,9,12.4c-1.2,1.2-2.3,2.9-1.6,5.5
		c1.1,4.1,7.2,5.3,13.5,5.3c-1.9,1.9-2.6,3.7-2.1,5.4c1.2,4.2,7.1,5.1,11.8,5c-0.4,0.6-0.7,1.3-0.8,2.1c-0.2,1.4,0.2,2.7,1.1,3.8
		c2.3,2.9,7.4,3.2,10.8,3c-0.5,1.1-0.7,2.4-0.5,3.8c0.8,4.5,7,7.1,16.7,7.3L55,67.1c-5.3,4.2-10,5.4-15.7,6.4
		c-1.2,0.2-2.3,0.3-3.4,0.4c-2.7,0.2-5.2,0.4-6.5,2.7c-0.8,1.5-0.6,3.4,0.5,5.1c-1.8,1-3.9,2.5-4.2,4.8C25.6,87.7,26,89,27,90.2
		c-1.1,2.1-1.3,4.2-0.6,5.8c0.5,0.9,1.4,2,3.4,2.5c0.1,1.7,0.9,3.2,2.1,4.2c1.2,0.9,3.2,1.7,6.7,0.5c1.6,0.9,3.1,1.3,4.4,1.3
		c0.7,0,1.3-0.1,1.9-0.3c1.5-0.5,2.7-1.6,3.5-3.3c1.4,0.2,3,0.1,4.3-0.9c1.4-1.1,2.2-3,2.6-6.1c1.5,0.1,2.8-0.3,3.8-1.3
		c1.6-1.6,2.5-4.9,0.2-9.4c-0.4-0.9-0.5-1.7-0.2-2.3c0.3-0.8,1.1-1.4,2.1-1.8c11.4,1,25.4-2.6,31.2-15.3c1.6-3.6,5.7-7,9.7-6.4
		c3.2,0.5,4.5,1.4,5.9,2.6c0.1,0.1,0.2,0.1,0.3,0.2c-1,1-1.6,1.9-2.2,2.8c-0.5,0.7-1,1.4-1.7,2.2c-2.7,3.2-5.2,3.9-9,4.1l-0.8,0
		c-0.9,2.4-8.6,20.5-10,23.9c0.8-0.4,1.9-0.7,3.1-1c1.5-3.6,4.4-10.4,6.5-15.3v21.3c-5.6-0.1-10.2-1.3-11.1-2.8
		c0.2,7.1,5.6,9,12.2,9c6.6,0,12-1.9,12.2-9c-0.9,1.5-5.3,2.6-10.7,2.8V76.9c2.1,4.9,4.9,11.6,6.4,15.2c1.3,0.3,2.4,0.7,3.2,1.1
		c-1-2.4-7.2-16.9-9.2-21.7c3.5-0.4,6.3-1.5,9.1-4.8c0.8-0.9,1.3-1.7,1.8-2.4c0.7-1.1,1.4-2,2.6-3.1c2.1-1.9,3.8-1.6,7.5-0.7
		c2.6,0.6,5.7,1.4,9.9,1.3c-2.1,5.1-7.7,18.1-8.9,21c0.8-0.4,1.9-0.7,3.1-1c1.5-3.6,4.4-10.4,6.5-15.3v21.3
		c-5.6-0.1-10.2-1.3-11.1-2.8c0.2,7.1,5.6,9,12.2,9c6.6,0,12-1.9,12.2-9c-0.9,1.5-5.3,2.6-10.7,2.8V66.7c2.1,4.9,4.9,11.6,6.4,15.2
		c1.3,0.3,2.4,0.7,3.2,1.1c-1.2-2.7-9.1-21.5-10.1-24l-1.1,0.2c-4.8,0.4-8.3-0.4-11-1.1c-2.6-0.6-5-1.2-7.3-0.3c0-0.1,0-0.1,0-0.2
		c0.2-1.7,0.5-4-1-6.1c0.6-1.8,1.2-4.4-0.1-6.9c-0.9-1.7-2.5-3-4.8-3.8c1.2-1.4,1.2-3,1.1-3.6c-0.1-0.8-0.4-1.6-0.8-2.2
		c6.2-0.6,9.6-1.5,10.9-5.1c0.4-1.2,0.4-2.6-0.4-4c4.4-0.3,7-1,8.4-4.3c0.5-1.3,0.5-2.6-0.1-3.7c-0.1-0.2-0.2-0.4-0.4-0.7
		C134.2,15.3,140.2,10.9,142.4,3.9z M107.8,46c1,1.9,0.1,4.2-0.3,5.1l-0.5,1l0.8,0.7c1,1,1.1,2.1,0.9,3.6c-1.4-1-3.1-1.8-6-2.2
		c-5.6-0.9-10.8,3.5-12.9,8.1c-2.4,5.2-6.4,9-12.1,11.3c-4.7,1.9-10.6,2.7-16.4,2.2l-0.3,0l-0.3,0.1c-2,0.7-3.5,2-4.2,3.7
		c-0.4,1-0.7,2.7,0.3,4.9c1.4,2.9,1.2,5,0.3,5.9c-0.7,0.7-1.8,0.4-2.4,0.1l-2.1-1l-0.1,2.3c-0.1,3.2-0.7,5.1-1.5,5.7
		c-0.4,0.3-1.1,0.6-3.1,0.1l-1.3-0.3l-0.5,1.3c-0.5,1.5-1.2,2.4-2.2,2.7c-1.1,0.4-2.7,0-4.4-1.1L39,99.8l-0.7,0.3
		c-2,0.8-3.6,0.8-4.5,0.2c-0.8-0.7-1-2-0.9-2.9l0.2-1.6l-1.6-0.1c-0.9-0.1-2-0.3-2.3-1c-0.4-0.8,0-2.3,1-3.7l0.7-1.1l-0.9-0.9
		c-0.6-0.5-1.2-1.3-1.1-2c0.2-1.2,2.6-2.5,3.8-3.1l2.3-1.2l-1.6-1.5c-1.2-1.1-1.6-2.3-1.2-2.9c0.4-0.8,1.8-0.9,4-1.1
		c1.1-0.1,2.4-0.2,3.8-0.5c6.2-1.2,11.4-2.5,17.3-7.3l0.3-0.3L62,56.9c0.9-0.1,2.5-0.2,5-0.5l1.3-0.2l1.3-3.2l-3.1,0.4
		C62,54,61,53.9,60.9,53.9h0l-0.1,0l-0.1,0c-8.7,0.2-15.2-1.8-15.7-4.7c-0.4-2.2,1.6-4,1.6-4l4-3.5l-5.2,0.8
		c-3.4,0.5-9.5,0.6-11.3-1.6c-0.4-0.5-0.5-0.9-0.4-1.4c0.1-1,1.1-2.1,2.4-3l5.1-3.4l-6.1,0.6c-6.7,0.7-11.8-0.4-12.5-2.6
		c-0.3-0.9,0.9-2.6,4.8-4.9l5.4-3.2l-6.3,0.4c-9.9,0.6-14.8-1-15.3-2.9c-0.4-1.6,0.2-2.4,2.4-3.7l2.6-1.5L13.5,14
		c-5.6-2.6-8.3-5.1-9.3-8.7c9.4,6.5,18.6,5.5,25.4,4.7c14.7-1.6,21.9,0.7,28.9,5.1c7.6,4.8,14.6,16,16.8,22.3
		c1.8,5.1,5.5,7.6,11.2,7.3c1.8-0.1,3.5-0.5,5.4-0.9c3.3-0.7,6.7-1.5,11-0.7C105.4,43.6,107.1,44.6,107.8,46z M120.1,14.7l-8,0.8
		l7.8,2.2c1.2,0.3,2,0.9,2.3,1.5c0.2,0.4,0.2,0.8,0,1.2c-0.9,2.2-2.5,2.4-9.8,2.6l-7.6,0.2l7.1,2.8c0.9,0.3,2.8,1.3,2.2,2.9
		c-0.8,2.2-3.1,2.7-12,3.4l-5.7,0.5l5.2,2.4c1.9,0.9,2.2,1.5,2.4,2.3c0.3,2-2.3,2.4-3.8,2.3c-3-0.1-6,0.4-8.9,1.1
		c-1.7,0.4-3.4,0.7-4.9,0.8c-4.4,0.2-6.9-1.4-8.2-5.3c-0.4-1.2-1-2.6-1.8-4.1l0.4-0.8C82,21.6,87.8,15,94,12.1
		c6.9-3.3,13.1-4.3,22.9-3.6c10.6,0.8,16-0.3,21.6-3.1C135.7,10.6,129.5,13.7,120.1,14.7z"/>
	<path class="st0" d="M101.6,47.8c0,0.8,0.6,1.4,1.4,1.4c0.8,0,1.4-0.6,1.4-1.4c0-0.8-0.6-1.4-1.4-1.4
		C102.2,46.4,101.6,47,101.6,47.8z"/>
</g>
<g>
	<path class="st0" d="M195.9,35.5h-16.8l-3.3,9.9h-8.7l15.9-43.9h8.9l15.8,43.9h-8.5L195.9,35.5z M193.8,29.1l-4.8-14
		c-0.5-1.3-0.9-3.2-1.3-4.9h-0.2c-0.3,1.7-0.9,3.5-1.3,4.9l-4.7,13.9H193.8z"/>
	<path class="st0" d="M247.3,45.4H239l-15.2-23.2c-1.8-2.7-4.1-6.7-5-8.2l-0.3,0.2c0.2,0.9,0.3,4.4,0.3,7.9l0.1,23.2h-8.3V1.5h7.9
		l15.6,24c2.4,3.7,4.2,7,4.8,8.3l0.4-0.2c-0.1-1.1-0.3-4.5-0.3-8.1l-0.1-23.9h8.2V45.4z"/>
	<path class="st0" d="M254.8,1.5h8.3v43.9h-8.3V1.5z"/>
	<path class="st0" d="M317.4,45.4h-8.3l0.1-24.4c0-1.9,0.2-5.1,0.3-5.4l-0.3-0.1c-0.1,0.6-0.9,3.3-1.5,4.4l-11.2,25.7h-4.7l-11.5-26
		c-0.9-1.8-1.3-3.8-1.4-4.1l-0.3,0.1c0.1,0.3,0.3,3.5,0.3,5.4l0.1,24.4h-8.3V1.5h9.1l11.5,25.1c1.1,2.5,2.5,6.2,2.9,7.3h0.2
		c0.3-1.1,1.8-4.7,2.9-7.3l11.4-25.1h8.8V45.4z"/>
	<path class="st0" d="M350.4,35.5h-16.8l-3.3,9.9h-8.7l15.9-43.9h8.9l15.8,43.9h-8.5L350.4,35.5z M348.2,29.1l-4.8-14
		c-0.5-1.3-0.9-3.2-1.3-4.9h-0.2c-0.3,1.7-0.9,3.5-1.3,4.9l-4.7,13.9H348.2z"/>
	<path class="st0" d="M395.4,38.5v6.9h-28.9V1.5h8.4v37H395.4z"/>
	<path class="st0" d="M170.4,97.4c4.4,0,6.7-1.9,6.7-6.8V60.4h8.4v30c0,9.5-5.9,14.3-15,14.3c-5.7,0-9.8-2.9-11.8-4.7l5-5.9
		C165.1,95.6,167.3,97.4,170.4,97.4z"/>
	<path class="st0" d="M228.8,60.4v26.7c0,10.7-7.3,17.7-18,17.7c-10.9,0-18.2-7-18.2-17.7V60.4h8.4V87c0,6.7,4,10.4,9.8,10.4
		c5.7,0,9.7-3.8,9.7-10.4V60.4H228.8z"/>
	<path class="st0" d="M249.3,67c-4.4,0-7.1,2.1-7.1,5.4c0,8.5,23.2,3.9,23.2,20.3c0,6.9-5.8,12.1-16.4,12.1
		c-8.7,0-14.7-3.7-17.2-5.9l5-6.1c1.9,1.7,6.4,5.1,12.4,5.1c5.1,0,7.8-1.9,7.8-5.1c0-9.7-23.2-4.7-23.2-20c0-7.3,6.1-12.8,15.3-12.8
		c11.8,0,15.1,7.1,16,11.3l-7.6,1.9C257.3,70.7,254.9,67,249.3,67z"/>
	<path class="st0" d="M281.8,67.3h-13.6v-6.9h35.6v6.9h-13.6v37h-8.4V67.3z"/>
	<path class="st0" d="M310.2,60.4h8.3v43.9h-8.3V60.4z"/>
	<path class="st0" d="M362.4,75.8l-7.9,1.2c0-4.1-2.6-9.8-9.6-9.8c-6.7,0-12,5.6-12,15.1c0,10.8,6.4,15.1,13.2,15.1
		c5.7,0,9.6-3.7,11.6-6.3l5,5.1c-1.8,2.5-7,8.5-16.8,8.5c-12.8,0-21.6-8.5-21.6-22.4c0-13.6,8.5-22.4,20.4-22.4
		C357.7,59.9,362.3,69.2,362.4,75.8z"/>
	<path class="st0" d="M375.9,67.3v11.2h17.6v6.7h-17.6v12.2h20.2v6.9h-28.6V60.4h28.6v6.9H375.9z"/>
</g>
</svg>
